<?xml version="1.0" standalone="no"?>
<!DOCTYPE svg PUBLIC "-//W3C//DTD SVG 20010904//EN"
 "http://www.w3.org/TR/2001/REC-SVG-20010904/DTD/svg10.dtd">
<svg version="1.0" xmlns="http://www.w3.org/2000/svg"
 width="496.000000pt" height="141.000000pt" viewBox="0 0 496.000000 141.000000"
 preserveAspectRatio="xMidYMid meet">

<g transform="translate(0.000000,141.000000) scale(0.100000,-0.100000)"
fill="currentColor" stroke="none">
<path d="M30 705 l0 -705 2455 0 2455 0 0 705 0 705 -25 0 c-14 0 -25 -4 -25
-10 0 -7 -810 -10 -2410 -10 -1600 0 -2410 3 -2410 10 0 6 -9 10 -20 10 -20 0
-20 -7 -20 -705z m290 436 l0 -210 -125 -3 -125 -3 0 213 0 212 125 0 125 0 0
-209z m260 -1 l0 -210 -115 0 -115 0 0 210 0 210 115 0 115 0 0 -210z m530 0
l0 -210 -115 0 -115 0 0 210 0 210 115 0 115 0 0 -210z m260 0 l0 -210 -115 0
-115 0 0 210 0 210 115 0 115 0 0 -210z m1062 38 l-172 -173 -172 173 -173
172 345 0 345 0 -173 -172z m1763 -68 l240 -240 -434 0 c-433 0 -435 0 -458
22 l-23 21 -23 -21 c-23 -22 -26 -22 -438 -22 l-414 0 240 240 240 240 415 0
415 0 240 -240z m695 107 l0 -133 -40 -39 -40 -39 -173 172 -172 172 213 0
212 0 0 -133z m-2525 -627 l105 105 0 -323 0 -322 -287 0 -288 0 -242 242
-243 243 0 400 0 400 425 -425 425 -425 105 105z m-1785 100 l0 -200 -115 0
-115 0 0 200 0 200 115 0 115 0 0 -200z m270 0 l0 -200 -115 0 -115 0 0 200 0
200 115 0 115 0 0 -200z m260 0 l0 -200 -115 0 -115 0 0 200 0 200 115 0 115
0 0 -200z m3780 -255 l0 -385 -1190 0 -1190 0 0 385 0 385 1190 0 1190 0 0
-385z m-4570 -186 l0 -199 -125 0 -125 0 0 203 0 202 125 -3 125 -3 0 -200z
m530 1 l0 -200 -115 0 -115 0 0 200 0 200 115 0 115 0 0 -200z m260 0 l0 -200
-115 0 -115 0 0 200 0 200 115 0 115 0 0 -200z m260 0 l0 -200 -115 0 -115 0
0 200 0 200 115 0 115 0 0 -200z"/>
<path d="M2740 435 l0 -225 45 0 45 0 0 225 0 225 -45 0 -45 0 0 -225z"/>
<path d="M3140 435 l0 -227 103 4 c131 5 184 28 225 96 23 41 27 58 27 127 0
101 -27 157 -95 195 -38 21 -61 25 -152 28 l-108 4 0 -227z m225 126 c50 -29
70 -125 41 -196 -20 -48 -68 -75 -133 -75 l-53 0 0 151 0 151 58 -7 c31 -4 71
-14 87 -24z"/>
<path d="M4258 637 c-22 -17 -28 -32 -28 -60 0 -33 -3 -37 -25 -37 -22 0 -25
-4 -25 -35 0 -31 3 -35 25 -35 l25 0 0 -103 c0 -94 2 -105 23 -125 27 -25 68
-36 102 -28 21 5 25 12 25 41 0 33 -1 34 -29 29 -40 -8 -51 16 -51 110 l0 76
40 0 c39 0 40 1 40 35 0 34 -1 35 -40 35 l-40 0 0 60 c0 33 -3 60 -7 60 -5 -1
-20 -11 -35 -23z"/>
<path d="M3645 522 c-54 -34 -60 -47 -28 -70 28 -20 28 -20 52 -1 35 28 91 22
108 -11 l12 -25 -74 -5 c-94 -7 -129 -29 -133 -85 -4 -49 12 -80 53 -100 43
-20 73 -19 117 4 30 15 38 16 42 5 3 -8 19 -14 36 -14 l30 0 0 111 c0 125 -12
164 -59 192 -39 23 -118 22 -156 -1z m139 -184 c-28 -50 -66 -68 -108 -52 -19
7 -21 35 -4 52 17 17 122 16 112 0z"/>
<path d="M3947 533 c-4 -3 -7 -75 -7 -160 l0 -153 40 0 40 0 0 96 c0 93 1 96
30 125 22 23 35 28 54 23 20 -5 27 0 41 26 14 27 15 34 3 41 -24 15 -75 9
-102 -12 l-26 -20 0 20 c0 17 -6 21 -33 21 -19 0 -37 -3 -40 -7z"/>
<path d="M4540 528 c0 -3 -9 -4 -20 -1 -15 4 -20 0 -20 -13 0 -16 -2 -17 -10
-4 -6 10 -10 11 -10 3 0 -15 -36 -53 -44 -47 -3 2 -4 1 -1 -3 3 -3 0 -12 -6
-19 -6 -8 -9 -21 -5 -29 3 -8 1 -15 -5 -15 -6 0 -9 -6 -6 -14 3 -8 1 -17 -6
-20 -9 -3 -8 -5 1 -5 7 -1 10 -5 7 -11 -3 -5 -2 -10 3 -10 6 0 8 -8 5 -19 -2
-10 2 -25 11 -33 8 -9 12 -19 8 -23 -4 -5 1 -5 10 -2 11 4 19 0 23 -14 4 -10
11 -19 16 -19 6 0 8 -4 5 -9 -4 -5 4 -7 16 -3 12 3 19 1 15 -4 -7 -12 63 -12
82 0 8 5 16 3 22 -5 7 -11 9 -11 9 -1 0 7 4 11 9 8 5 -3 12 1 15 10 4 10 12
14 23 10 10 -4 14 -4 10 0 -4 4 -3 12 2 18 6 7 1 19 -15 35 -15 15 -24 18 -24
10 0 -11 -3 -11 -10 1 -8 13 -10 12 -10 -2 0 -10 -8 -19 -17 -20 -10 0 -25 -2
-33 -3 -8 -1 -21 4 -29 9 -11 8 -13 8 -7 -1 11 -19 -1 -16 -23 6 -11 11 -17
22 -13 25 3 3 1 6 -5 6 -6 0 -9 9 -6 21 4 14 8 17 13 9 6 -9 13 -9 28 -1 15 8
22 8 25 -2 4 -9 6 -9 6 0 1 9 8 10 27 3 14 -6 23 -6 20 -1 -3 4 8 8 23 7 16
-1 27 -4 24 -8 -8 -14 23 -8 43 8 10 8 13 13 7 9 -7 -3 -13 -1 -13 4 0 6 5 11
10 11 7 0 7 6 2 18 -5 9 -8 27 -7 39 1 12 -2 20 -6 18 -3 -3 -12 9 -19 26 -8
18 -18 28 -26 25 -7 -3 -16 4 -19 15 -5 15 -10 17 -26 9 -10 -6 -19 -7 -19 -2
0 5 -13 9 -30 8 -16 -1 -30 -4 -30 -8z m50 -58 c0 -5 8 -6 19 -3 10 3 22 -1
26 -8 5 -8 4 -10 -3 -5 -8 5 -10 2 -6 -8 3 -9 10 -14 14 -11 5 3 6 -3 3 -14
-3 -13 -11 -17 -26 -14 -16 3 -18 2 -9 -5 10 -6 5 -9 -17 -8 -17 1 -31 4 -31
7 0 3 -11 4 -25 1 -34 -6 -44 23 -17 49 12 10 28 19 37 19 9 0 13 4 10 10 -3
6 1 7 9 4 9 -3 16 -10 16 -14z"/>
<path d="M2947 462 c-22 -24 -21 -45 1 -65 35 -32 82 -15 82 29 0 48 -52 70
-83 36z"/>
</g>
</svg>
